<svg width="15" height="15" viewBox="0 0 15 15" fill="#676767" xmlns="http://www.w3.org/2000/svg">
<path d="M1.87342 0.873374L0.926758 1.81337L2.44009 3.32671C1.74009 4.38004 1.33342 5.64004 1.33342 7.00004C1.33342 10.68 4.32009 13.6667 8.00009 13.6667C9.36009 13.6667 10.6201 13.26 11.6734 12.56L13.1868 14.0734L14.1268 13.1334L1.87342 0.873374ZM8.00009 12.3334C5.06009 12.3334 2.66676 9.94004 2.66676 7.00004C2.66676 6.01337 2.94009 5.09337 3.41342 4.29337L10.7068 11.5867C9.90676 12.06 8.98676 12.3334 8.00009 12.3334ZM5.29342 2.41337L4.32676 1.44004C5.38009 0.740041 6.64009 0.333374 8.00009 0.333374C11.6801 0.333374 14.6668 3.32004 14.6668 7.00004C14.6668 8.36004 14.2601 9.62004 13.5601 10.6734L12.5868 9.70004C13.0601 8.90671 13.3334 7.98671 13.3334 7.00004C13.3334 4.06004 10.9401 1.66671 8.00009 1.66671C7.01342 1.66671 6.09342 1.94004 5.29342 2.41337Z" fill="#676767"/>
</svg>
