<?xml version="1.0" encoding="UTF-8" standalone="no"?>
<svg xmlns:dc="http://purl.org/dc/elements/1.1/" xmlns:cc="http://creativecommons.org/ns#"
    xmlns:rdf="http://www.w3.org/1999/02/22-rdf-syntax-ns#" xmlns:svg="http://www.w3.org/2000/svg"
    xmlns="http://www.w3.org/2000/svg" xmlns:sodipodi="http://sodipodi.sourceforge.net/DTD/sodipodi-0.dtd"
    xmlns:inkscape="http://www.inkscape.org/namespaces/inkscape" inkscape:version="1.0 (4035a4f, 2020-05-01)"
    sodipodi:docname="pieFullTanLogo.svg" version="1.1" id="svg2" xml:space="preserve" width="769.85455"
    height="351.87213" viewBox="0 0 769.85455 351.87213">
    <sodipodi:namedview inkscape:current-layer="svg2" inkscape:window-maximized="0" inkscape:window-y="383"
        inkscape:window-x="0" inkscape:cy="175.93639" inkscape:cx="384.92739" inkscape:zoom="0.99715909"
        fit-margin-bottom="0" fit-margin-right="0" fit-margin-left="0" fit-margin-top="0" showgrid="false"
        id="namedview178" inkscape:window-height="880" inkscape:window-width="1589" inkscape:pageshadow="2"
        inkscape:pageopacity="0" guidetolerance="10" gridtolerance="10" objecttolerance="10" borderopacity="1"
        bordercolor="#666666" pagecolor="#ffffff" />
    <metadata id="metadata8">
        <rdf:RDF>
            <cc:Work rdf:about="">
                <dc:format>
                    image/svg+xml
                </dc:format>
                <dc:type rdf:resource="http://purl.org/dc/dcmitype/StillImage" />
                <dc:title></dc:title>
            </cc:Work>
        </rdf:RDF>
    </metadata>
    <defs id="defs6">
        <clipPath clipPathUnits="userSpaceOnUse" id="clipPath18">
            <path d="M 0,612 H 792 V 0 H 0 Z" id="path16" />
        </clipPath>
    </defs>
    <g id="g10" transform="matrix(1.3333333,0,0,-1.3333333,-143.07261,583.93639)">
        <g id="g12">
            <g id="g14" clip-path="url(#clipPath18)">
                <g id="g20" transform="translate(354.3237,261.7187)">
                    <path
                        d="m 0,0 c -2.7,-0.797 -5.407,1.227 -5.407,4.041 v 127.214 c 0,2.327 1.886,4.214 4.213,4.214 h 30.566 c 2.327,0 4.213,-1.887 4.213,-4.214 V 16.494 c 0,-1.679 -1.015,-3.189 -2.568,-3.824 z"
                        style="fill:#dac6a6;fill-opacity:1;fill-rule:nonzero;stroke:none" id="path22" />
                </g>
                <g id="g24" transform="translate(383.8096,406.0493)">
                    <path
                        d="m 0,0 h -30.794 c -2.264,0 -4.099,1.835 -4.099,4.1 v 23.704 c 0,2.264 1.835,4.099 4.099,4.099 H 0 c 2.264,0 4.099,-1.835 4.099,-4.099 V 4.1 C 4.099,1.835 2.264,0 0,0"
                        style="fill:#dac6a6;fill-opacity:1;fill-rule:nonzero;stroke:none" id="path26" />
                </g>
                <g id="g28" transform="translate(447.4082,341.4355)">
                    <path
                        d="m 0,0 c 1.363,11.492 13.203,20.841 26.392,20.841 13.239,0 25.084,-9.385 26.402,-20.922 0.112,-0.98 -0.203,-1.967 -0.863,-2.708 -0.668,-0.748 -1.626,-1.177 -2.626,-1.177 H 3.553 C 2.529,-3.966 1.551,-3.527 0.87,-2.76 0.198,-2.004 -0.119,-0.998 0,0 m 55.471,-50.673 c -0.777,2.592 -3.161,4.367 -5.867,4.367 H 26.396 c -12.367,10e-4 -23.508,8.192 -25.998,18.673 h 61.457 l 27.614,-0.027 c 2.421,-0.003 4.409,1.909 4.503,4.327 l 0.376,9.735 c 0,39.077 -33.155,70.555 -72.811,67.785 -33.815,-2.362 -60.571,-29.119 -62.932,-62.934 -2.768,-39.655 28.71,-72.808 67.787,-72.808 h 30.189 c 4.058,0 6.969,3.911 5.804,7.799 z"
                        style="fill:#dac6a6;fill-opacity:1;fill-rule:nonzero;stroke:none" id="path30" />
                </g>
                <g id="g32" transform="translate(331.9312,332.7949)">
                    <path
                        d="m 0,0 c -2.264,33.251 -28.979,60.313 -62.199,62.998 -12.412,1.003 -24.197,-1.368 -34.558,-6.271 v 3.431 c 0,2.339 -1.896,4.235 -4.235,4.235 h -30.524 c -2.338,0 -4.234,-1.896 -4.234,-4.234 V 38.392 c 0,-3.426 2.077,-6.511 5.252,-7.8 l 36.345,-14.757 c 2.463,-1 5.291,-0.556 7.287,1.199 6.199,5.445 14.729,8.291 23.886,6.807 12.597,-2.042 22.508,-12.506 23.955,-25.184 1.995,-17.479 -11.683,-32.351 -28.769,-32.351 -7.054,0 -13.519,2.54 -18.543,6.748 -2.155,1.804 -5.161,2.196 -7.765,1.138 l -36.293,-14.735 c -3.237,-1.314 -5.355,-4.46 -5.355,-7.954 v -52.324 c 0,-2.76 2.654,-4.743 5.301,-3.961 l 31.085,12.468 c 1.574,0.631 2.607,2.157 2.607,3.853 v 22.272 c 8.791,-4.161 18.608,-6.499 28.963,-6.499 39.036,0 70.49,33.086 67.794,72.688"
                        style="fill:#dac6a6;fill-opacity:1;fill-rule:nonzero;stroke:none" id="path34" />
                </g>
                <g id="g36" transform="translate(263.9731,192.6104)">
                    <path
                        d="m 0,0 h 5.332 v 24.029 h -5.67 v 5.063 h 5.67 v 1.685 c 0,10.936 8.234,12.286 12.284,12.286 1.822,0 3.106,-0.204 3.106,-0.204 V 37.46 c 0,0 -0.878,0.202 -2.43,0.202 -2.161,0 -6.412,-0.606 -6.412,-6.748 v -1.822 h 8.234 V 24.029 H 11.88 V 0 h 6.277 V -5.062 H 0 Z"
                        style="fill:#0074a3;fill-opacity:1;fill-rule:nonzero;stroke:none" id="path38" />
                </g>
                <g id="g40" transform="translate(306.8345,192.4082)">
                    <path
                        d="m 0,0 c 6.413,0 11.745,5.13 11.745,12.284 0,7.087 -5.332,12.15 -11.745,12.15 -6.479,0 -11.744,-5.063 -11.744,-12.15 C -11.744,5.13 -6.479,0 0,0 m 0,30.103 c 10.192,0 18.428,-7.492 18.428,-17.819 C 18.428,1.89 10.192,-5.671 0,-5.671 c -10.191,0 -18.426,7.561 -18.426,17.955 0,10.327 8.235,17.819 18.426,17.819"
                        style="fill:#0074a3;fill-opacity:1;fill-rule:nonzero;stroke:none" id="path42" />
                </g>
                <g id="g44" transform="translate(331.0688,192.6104)">
                    <path
                        d="m 0,0 h 5.13 v 22.544 c 0,1.012 -0.541,1.485 -1.485,1.485 h -4.253 v 5.063 h 7.695 c 2.971,0 4.387,-1.216 4.387,-3.984 v -2.16 c 0,-1.349 -0.135,-2.361 -0.135,-2.361 h 0.135 c 1.553,4.993 5.536,8.909 10.8,8.909 0.878,0 1.688,-0.135 1.688,-0.135 v -6.48 c 0,0 -0.81,0.203 -1.891,0.203 -7.289,0 -10.395,-7.357 -10.395,-14.04 V 0 h 5.063 V -5.062 H 0 Z"
                        style="fill:#0074a3;fill-opacity:1;fill-rule:nonzero;stroke:none" id="path46" />
                </g>
                <g id="g48" transform="translate(395.1235,192.4082)">
                    <path
                        d="m 0,0 c 5.401,0 9.855,4.387 9.855,12.149 0,7.424 -3.982,12.217 -9.719,12.217 -5.062,0 -9.788,-3.577 -9.788,-12.284 C -9.652,6.007 -6.344,0 0,0 m -16.063,-13.298 v 36.044 c 0,1.012 -0.541,1.485 -1.486,1.485 h -4.185 v 5.063 h 7.56 c 3.038,0 4.185,-1.351 4.185,-3.375 v -0.272 c 0,-1.079 -0.135,-1.957 -0.135,-1.957 h 0.135 c 0,0 2.835,6.413 11.474,6.413 9.181,0 14.984,-7.29 14.984,-17.886 0,-10.868 -6.546,-17.888 -15.455,-17.888 -7.493,0 -10.598,5.806 -10.598,5.806 h -0.135 c 0,0 0.202,-1.216 0.202,-2.971 v -10.462 h 5.401 v -5.062 h -17.28 v 5.062 z"
                        style="fill:#0074a3;fill-opacity:1;fill-rule:nonzero;stroke:none" id="path50" />
                </g>
                <g id="g52" transform="translate(417.8052,192.6104)">
                    <path
                        d="m 0,0 h 5.13 v 22.544 c 0,1.012 -0.541,1.485 -1.485,1.485 h -4.253 v 5.063 h 7.695 c 2.971,0 4.387,-1.216 4.387,-3.984 v -2.16 c 0,-1.349 -0.135,-2.361 -0.135,-2.361 h 0.135 c 1.553,4.993 5.536,8.909 10.8,8.909 0.878,0 1.688,-0.135 1.688,-0.135 v -6.48 c 0,0 -0.81,0.203 -1.891,0.203 -7.289,0 -10.395,-7.357 -10.395,-14.04 V 0 h 5.063 V -5.062 H 0 Z"
                        style="fill:#0074a3;fill-opacity:1;fill-rule:nonzero;stroke:none" id="path54" />
                </g>
                <g id="g56" transform="translate(463.7705,192.4082)">
                    <path
                        d="m 0,0 c 6.413,0 11.745,5.13 11.745,12.284 0,7.087 -5.332,12.15 -11.745,12.15 -6.479,0 -11.744,-5.063 -11.744,-12.15 C -11.744,5.13 -6.479,0 0,0 m 0,30.103 c 10.192,0 18.428,-7.492 18.428,-17.819 C 18.428,1.89 10.192,-5.671 0,-5.671 c -10.191,0 -18.426,7.561 -18.426,17.955 0,10.327 8.235,17.819 18.426,17.819"
                        style="fill:#0074a3;fill-opacity:1;fill-rule:nonzero;stroke:none" id="path58" />
                </g>
                <g id="g60" transform="translate(485.1704,221.7021)">
                    <path
                        d="m 0,0 h 15.321 v -5.062 h -4.387 l 7.223,-19.913 c 0.539,-1.485 0.742,-3.172 0.742,-3.172 h 0.203 c 0,0 0.202,1.687 0.742,3.172 l 7.289,19.913 H 22.746 V 0 H 38.001 V -5.062 H 33.749 L 22.679,-34.154 H 15.321 L 4.32,-5.062 H 0 Z"
                        style="fill:#0074a3;fill-opacity:1;fill-rule:nonzero;stroke:none" id="path62" />
                </g>
                <path
                    d="m 532.217,235.2 h 6.885 v -6.683 h -6.885 z m -5.197,-42.59 h 5.332 v 24.03 h -5.671 v 5.062 h 12.217 V 192.61 h 5.401 v -5.062 H 527.02 Z"
                    style="fill:#0074a3;fill-opacity:1;fill-rule:nonzero;stroke:none" id="path64" />
                <g id="g66" transform="translate(565.6284,192.4082)">
                    <path
                        d="m 0,0 c 5.062,0 9.855,3.645 9.855,12.149 0,6.277 -3.172,12.217 -9.653,12.217 -5.467,0 -9.854,-4.387 -9.854,-12.149 C -9.652,4.791 -5.669,0 0,0 m -0.81,30.103 c 7.762,0 10.529,-5.737 10.529,-5.737 h 0.136 c 0,0 -0.203,1.079 -0.203,2.565 V 37.729 H 3.983 v 5.063 H 16.2 V 1.687 c 0,-1.013 0.54,-1.485 1.485,-1.485 h 3.442 V -4.86 H 14.31 c -3.038,0 -4.252,1.485 -4.252,3.712 v 0.472 c 0,1.148 0.202,1.822 0.202,1.822 h -0.135 c 0,0 -2.767,-6.817 -11.542,-6.817 -9.18,0 -14.917,7.291 -14.917,17.888 0,10.866 6.345,17.886 15.524,17.886"
                        style="fill:#0074a3;fill-opacity:1;fill-rule:nonzero;stroke:none" id="path68" />
                </g>
                <g id="g70" transform="translate(616.7925,208.2021)">
                    <path
                        d="m 0,0 c -0.202,6.007 -3.847,9.111 -8.167,9.111 -4.995,0 -9.045,-3.374 -9.99,-9.111 z m -8.032,14.309 c 9.719,0 14.782,-7.155 14.782,-15.996 0,-0.878 -0.202,-2.499 -0.202,-2.499 h -24.974 c 0.404,-7.559 5.738,-11.608 11.812,-11.608 5.939,0 10.191,3.847 10.191,3.847 l 2.701,-4.792 c 0,0 -5.13,-4.726 -13.298,-4.726 -10.731,0 -18.089,7.763 -18.089,17.888 0,10.866 7.358,17.886 17.077,17.886"
                        style="fill:#0074a3;fill-opacity:1;fill-rule:nonzero;stroke:none" id="path72" />
                </g>
                <g id="g74" transform="translate(629.7534,192.6104)">
                    <path
                        d="m 0,0 h 5.13 v 22.544 c 0,1.012 -0.541,1.485 -1.485,1.485 h -4.253 v 5.063 h 7.695 c 2.971,0 4.387,-1.216 4.387,-3.984 v -2.16 c 0,-1.349 -0.135,-2.361 -0.135,-2.361 h 0.135 c 1.553,4.993 5.536,8.909 10.8,8.909 0.878,0 1.688,-0.135 1.688,-0.135 v -6.48 c 0,0 -0.81,0.203 -1.891,0.203 -7.289,0 -10.395,-7.357 -10.395,-14.04 V 0 h 5.063 V -5.062 H 0 Z"
                        style="fill:#0074a3;fill-opacity:1;fill-rule:nonzero;stroke:none" id="path76" />
                </g>
                <g id="g78" transform="translate(657.6294,198.5498)">
                    <path
                        d="m 0,0 h 5.738 v -2.228 c 0,-2.902 4.049,-4.252 7.829,-4.252 3.847,0 6.885,1.552 6.885,4.387 0,3.443 -3.781,4.524 -8.505,6.211 -5.062,1.89 -10.664,4.184 -10.664,10.395 0,6.748 6.681,9.448 12.621,9.448 4.793,0 11.813,-1.89 11.813,-6.885 V 12.96 h -5.738 v 2.227 c 0,2.092 -2.7,3.509 -6.007,3.509 -3.239,0 -6.075,-1.349 -6.075,-4.116 0,-3.24 3.781,-4.591 7.897,-6.008 5.265,-1.755 11.272,-3.982 11.272,-10.327 0,-6.48 -5.939,-10.058 -13.701,-10.058 C 7.154,-11.813 0,-9.045 0,-3.645 Z"
                        style="fill:#0074a3;fill-opacity:1;fill-rule:nonzero;stroke:none" id="path80" />
                </g>
                <g id="g82" transform="translate(136.415,369.0127)">
                    <path
                        d="m 0,0 c -0.024,-0.067 -0.046,-0.135 -0.07,-0.203 -2.276,-6.147 -4.041,-12.537 -5.266,-19.115 -0.278,-1.494 1.546,-2.457 2.62,-1.383 L 9.443,-8.542 c 0.603,0.604 0.603,1.582 0,2.184 l -4.584,4.584 c 0.002,0.002 0.008,0.006 0.008,0.006 L 2.549,0.55 C 1.753,1.346 0.385,1.058 0,0"
                        style="fill:#0074a3;fill-opacity:1;fill-rule:nonzero;stroke:none" id="path84" />
                </g>
                <g id="g86" transform="translate(123.0864,327.9482)">
                    <path
                        d="m 0,0 c 0,16.678 3.362,32.565 9.419,47.046 0.33,0.788 -0.033,1.688 -0.821,2.019 l -11.8,4.938 c -1.682,-1.005 -2.523,-2.982 -2.079,-4.892 l 2.152,-9.269 c 0.371,-1.596 -0.154,-3.268 -1.369,-4.367 l -7.058,-6.382 c -1.454,-1.314 -1.893,-3.417 -1.086,-5.204 l 3.92,-8.671 c 0.675,-1.493 0.487,-3.234 -0.491,-4.549 l -5.678,-7.636 c -1.17,-1.573 -1.189,-3.721 -0.049,-5.316 l 5.536,-7.739 c 0.953,-1.333 1.109,-3.078 0.406,-4.559 l -4.079,-8.597 c -0.84,-1.77 -0.441,-3.882 0.989,-5.222 l 6.939,-6.512 c 1.195,-1.121 1.688,-2.802 1.288,-4.391 l -2.324,-9.227 c -0.478,-1.902 0.326,-3.894 1.989,-4.931 l 12.39,4.999 c 0.853,0.345 1.252,1.31 0.903,2.161 C 3.237,-32.021 0,-16.39 0,0"
                        style="fill:#dac6a6;fill-opacity:1;fill-rule:nonzero;stroke:none" id="path88" />
                </g>
                <g id="g90" transform="translate(189.9321,350.4165)">
                    <path
                        d="m 0,0 4.864,-4.865 c 0.603,-0.603 1.581,-0.603 2.183,0 l 2.042,2.042 C 9.87,-2.042 9.603,-0.72 8.582,-0.302 L 1.676,2.521 C 0.116,3.158 -1.191,1.191 0,0"
                        style="fill:#0074a3;fill-opacity:1;fill-rule:nonzero;stroke:none" id="path92" />
                </g>
                <g id="g94" transform="translate(194.7969,311.5703)">
                    <path
                        d="m 0,0 -6.654,-6.653 c -1.191,-1.191 0.115,-3.158 1.675,-2.521 l 9.45,3.857 c 1.022,0.417 1.289,1.74 0.508,2.521 L 2.183,0 C 1.58,0.603 0.603,0.603 0,0"
                        style="fill:#0074a3;fill-opacity:1;fill-rule:nonzero;stroke:none" id="path96" />
                </g>
                <g id="g98" transform="translate(146.791,327.4692)">
                    <path
                        d="m 0,0 14.961,-14.961 c 0.603,-0.603 1.58,-0.603 2.183,0 L 32.106,0 c 0.603,0.603 0.603,1.581 0,2.184 l -14.96,14.962 c -0.604,0.603 -1.581,0.603 -2.184,0 L 0,2.183 C -0.603,1.58 -0.603,0.603 0,0"
                        style="fill:#0074a3;fill-opacity:1;fill-rule:nonzero;stroke:none" id="path100" />
                </g>
                <g id="g102" transform="translate(130.8496,307.6221)">
                    <path
                        d="m 0,0 c 1.194,-6.822 2.967,-13.447 5.286,-19.815 0.384,-1.057 1.753,-1.345 2.548,-0.55 l 7.169,7.169 c 0.603,0.603 0.603,1.58 0,2.183 L 2.623,1.368 C 1.554,2.437 -0.26,1.489 0,0"
                        style="fill:#0074a3;fill-opacity:1;fill-rule:nonzero;stroke:none" id="path104" />
                </g>
                <g id="g106" transform="translate(198.6294,341.7187)">
                    <path
                        d="m 0,0 v 0 l -15.899,-15.899 -15.23,-15.229 c -1.058,-1.058 -1.058,-2.773 0,-3.83 l 6.586,-6.587 c 1.057,-1.058 2.772,-1.058 3.83,0 l 16.601,16.6 13.158,13.158 8.787,8.787 c 1.369,1.369 0.901,3.691 -0.891,4.423 L 7.592,5.245 C 6.583,5.658 5.423,5.424 4.652,4.652 Z"
                        style="fill:#dac6a6;fill-opacity:1;fill-rule:nonzero;stroke:none" id="path108" />
                </g>
                <g id="g110" transform="translate(142.958,331.3022)">
                    <path
                        d="m 0,0 15.23,15.23 c 1.058,1.058 1.058,2.773 0,3.831 L 8.643,25.647 C 7.585,26.705 5.87,26.705 4.812,25.646 L -10.417,10.417 -12.714,8.119 c -0.454,-0.454 -0.737,-1.054 -0.79,-1.695 -0.268,-3.196 -0.423,-6.424 -0.423,-9.69 0,-1.395 0.028,-2.782 0.081,-4.163 0.091,-2.351 2.966,-3.451 4.63,-1.787 l 7.845,7.845 z"
                        style="fill:#dac6a6;fill-opacity:1;fill-rule:nonzero;stroke:none" id="path112" />
                </g>
                <g id="g114" transform="translate(161.4727,307.3052)">
                    <path
                        d="m 0,0 -1.371,1.371 -15.228,15.228 c -1.058,1.058 -2.773,1.058 -3.831,0 l -6.586,-6.586 c -1.058,-1.057 -1.058,-2.773 0,-3.831 l 16.599,-16.599 v 0 l 6.049,-6.049 c 0.771,-0.771 1.929,-1.005 2.939,-0.593 l 9.355,3.818 c 1.793,0.732 2.261,3.054 0.891,4.423 z"
                        style="fill:#dac6a6;fill-opacity:1;fill-rule:nonzero;stroke:none" id="path116" />
                </g>
                <g id="g118" transform="translate(141.853,282.8232)">
                    <path
                        d="m 0,0 8.856,3.614 c 1.793,0.732 2.261,3.054 0.892,4.423 -1.058,1.059 -2.773,1.059 -3.831,0 L -2.245,-0.124 C -1.526,-0.322 -0.741,-0.302 0,0"
                        style="fill:#dac6a6;fill-opacity:1;fill-rule:nonzero;stroke:none" id="path120" />
                </g>
                <g id="g122" transform="translate(140.5854,373.4468)">
                    <path
                        d="m 0,0 9.1,-9.1 14.53,-14.528 0.737,-0.738 0.633,-0.633 15.229,-15.23 c 1.058,-1.058 2.773,-1.058 3.831,0 l 6.586,6.585 c 1.058,1.059 1.058,2.773 0,3.832 l -15.605,15.606 c -0.255,0.255 -0.558,0.456 -0.891,0.593 L 1.47,-0.256 C 0.988,-0.059 0.49,0.013 0,0"
                        style="fill:#dac6a6;fill-opacity:1;fill-rule:nonzero;stroke:none" id="path124" />
                </g>
                <g id="g126" transform="translate(207.1304,323.9043)">
                    <path
                        d="m 0,0 -6.585,-6.586 c -1.059,-1.058 -1.059,-2.773 0,-3.831 l 3.495,-3.495 c 0.771,-0.771 1.929,-1.005 2.939,-0.592 l 9.355,3.816 c 1.793,0.732 2.261,3.055 0.892,4.424 L 3.831,0 C 2.773,1.058 1.058,1.058 0,0"
                        style="fill:#dac6a6;fill-opacity:1;fill-rule:nonzero;stroke:none" id="path128" />
                </g>
                <g id="g130" transform="translate(240.3491,333.0112)">
                    <path
                        d="m 0,0 c -3.175,1.298 -13.339,5.453 -13.339,5.453 -2.292,0.936 -4.921,0.406 -6.672,-1.344 l -4.213,-4.213 c -2.4,-2.4 -2.4,-6.292 0,-8.692 l 4.983,-4.982 c 1.749,-1.749 4.377,-2.279 6.667,-1.344 0,0 10.677,4.351 12.803,5.224 2.127,0.873 3.127,2.68 3.127,4.811 C 3.356,-3.022 2.307,-0.943 0,0"
                        style="fill:#0074a3;fill-opacity:1;fill-rule:nonzero;stroke:none" id="path132" />
                </g>
            </g>
        </g>
    </g>
</svg>