<svg width="39" height="31" viewBox="0 0 39 31" fill="none" xmlns="http://www.w3.org/2000/svg">
<path d="M8.21311 3.65006V3.71006C7.56592 5.46168 7.06749 7.26473 6.72311 9.10006C6.69105 9.28769 6.78328 9.47466 6.95168 9.56341C7.12007 9.65216 7.32644 9.62256 7.46311 9.49006L10.8931 6.06006C11.0634 5.88849 11.0634 5.61163 10.8931 5.44006L9.58311 4.16006L8.93311 3.50006C8.8282 3.39543 8.67769 3.35062 8.53264 3.38084C8.3876 3.41106 8.2675 3.51224 8.21311 3.65006Z" fill="#006EA0"/>
<path d="M4.45274 15.23C4.45116 10.6751 5.35183 6.16495 7.10274 1.96C7.15211 1.85441 7.15538 1.73305 7.11176 1.62496C7.06814 1.51687 6.98157 1.43176 6.87274 1.39L3.54274 0C3.0675 0.28286 2.83226 0.842561 2.96274 1.38L3.56274 3.99C3.67035 4.44166 3.52493 4.91618 3.18274 5.23L1.18274 7.03C0.771274 7.39652 0.645706 7.9879 0.872744 8.49L1.98274 10.94C2.1697 11.3608 2.11624 11.8496 1.84274 12.22L0.242744 14.38C-0.0809147 14.8276 -0.0809147 15.4324 0.242744 15.88L1.80274 18.06C2.07556 18.4357 2.12157 18.9304 1.92274 19.35L0.802744 21.77C0.561881 22.2714 0.675359 22.8712 1.08274 23.25L3.08274 25.08C3.42131 25.396 3.56281 25.8702 3.45274 26.32L2.79274 28.92C2.65885 29.4585 2.88438 30.0224 3.35274 30.32L6.80274 28.9C6.9172 28.8557 7.00862 28.7666 7.05582 28.6534C7.10302 28.5401 7.10191 28.4124 7.05274 28.3C5.34244 24.1545 4.4592 19.7145 4.45274 15.23Z" fill="#D9C3A2"/>
<path d="M23.303 8.90008L24.683 10.2701C24.7637 10.3513 24.8735 10.397 24.988 10.397C25.1025 10.397 25.2123 10.3513 25.293 10.2701L25.873 9.69008C25.9737 9.58648 26.017 9.44009 25.9891 9.29839C25.9612 9.15669 25.8655 9.03773 25.733 8.98008L23.803 8.16008C23.5987 8.02201 23.3211 8.07574 23.183 8.28008C23.045 8.48443 23.0987 8.76201 23.303 8.90008Z" fill="#006EA0"/>
<path d="M24.6828 19.85L22.8028 21.73C22.6427 21.8722 22.6115 22.1105 22.7297 22.289C22.8479 22.4676 23.0794 22.532 23.2728 22.44L25.9428 21.35C26.079 21.2963 26.1785 21.1769 26.2068 21.0333C26.2351 20.8896 26.1884 20.7415 26.0828 20.64L25.2928 19.85C25.2121 19.7688 25.1023 19.7231 24.9878 19.7231C24.8733 19.7231 24.7636 19.7688 24.6828 19.85Z" fill="#006EA0"/>
<rect x="10.833" y="15.0674" width="6.84" height="6.84" rx="0.44" transform="rotate(-45 10.833 15.0674)" fill="#006EA0"/>
<path d="M6.64274 20.9701C6.96961 22.8746 7.46831 24.7455 8.13274 26.5601C8.18281 26.7018 8.3033 26.8072 8.45049 26.8378C8.59769 26.8685 8.75022 26.8201 8.85274 26.7101L10.8527 24.7101C11.0231 24.5385 11.0231 24.2616 10.8527 24.0901L7.36274 20.6001C7.2271 20.4874 7.03732 20.4666 6.8805 20.5472C6.72368 20.6278 6.63011 20.7942 6.64274 20.9701Z" fill="#006EA0"/>
<path d="M25.803 11.3503L21.313 15.8303L16.983 20.1603C16.8389 20.3031 16.7578 20.4975 16.7578 20.7003C16.7578 20.9032 16.8389 21.0976 16.983 21.2403L18.803 23.0703C18.9475 23.2151 19.1435 23.2964 19.348 23.2964C19.5525 23.2964 19.7486 23.2151 19.893 23.0703L24.573 18.3903L28.283 14.6703L30.803 12.1603C30.9822 11.9784 31.0595 11.7195 31.0094 11.4691C30.9594 11.2187 30.7884 11.0094 30.553 10.9103L27.903 9.87034C27.6175 9.75324 27.2895 9.82042 27.073 10.0403L25.803 11.3503Z" fill="#D9C3A2"/>
<path d="M10.053 14.2904L14.353 9.99041C14.4972 9.84767 14.5783 9.65325 14.5783 9.45041C14.5783 9.24756 14.4972 9.05314 14.353 8.91041L12.493 7.05041C12.3503 6.90628 12.1559 6.8252 11.953 6.8252C11.7502 6.8252 11.5558 6.90628 11.413 7.05041L7.11305 11.3504L6.47305 12.0004C6.34247 12.1285 6.26106 12.2984 6.24305 12.4804C6.17305 13.3804 6.12305 14.2904 6.12305 15.2104C6.12305 15.6037 6.12305 15.9937 6.12305 16.3804C6.1328 16.684 6.32235 16.9526 6.6051 17.0635C6.88784 17.1744 7.20948 17.1064 7.42305 16.8904L9.64305 14.6704L10.053 14.2904Z" fill="#D9C3A2"/>
<path d="M15.2827 21.06L14.8927 20.67L10.5927 16.37C10.2909 16.0804 9.8145 16.0804 9.51271 16.37L7.66271 18.23C7.51859 18.3727 7.4375 18.5671 7.4375 18.77C7.4375 18.9728 7.51859 19.1672 7.66271 19.31L12.3427 24L14.0427 25.7C14.2592 25.9199 14.5872 25.9871 14.8727 25.87L17.5127 24.79C17.7581 24.7038 17.9424 24.4981 18.0012 24.2447C18.06 23.9913 17.9851 23.7254 17.8027 23.54L15.2827 21.06Z" fill="#D9C3A2"/>
<path d="M9.74328 27.9603L12.2433 26.9603C12.4823 26.868 12.6577 26.6601 12.7084 26.4089C12.759 26.1577 12.6779 25.898 12.4933 25.7203C12.3505 25.5762 12.1561 25.4951 11.9533 25.4951C11.7504 25.4951 11.556 25.5762 11.4133 25.7203L9.11328 28.0203C9.32424 28.0691 9.54531 28.048 9.74328 27.9603Z" fill="#D9C3A2"/>
<path d="M9.38281 2.39966L11.9528 4.96966L16.0528 9.05966L16.2628 9.26966L16.4428 9.44966L20.7328 13.7497C20.8755 13.8938 21.07 13.9749 21.2728 13.9749C21.4757 13.9749 21.6701 13.8938 21.8128 13.7497L23.6728 11.8897C23.8169 11.7469 23.898 11.5525 23.898 11.3497C23.898 11.1468 23.8169 10.9524 23.6728 10.8097L19.2728 6.40966C19.2029 6.33546 19.1175 6.27744 19.0228 6.23966L9.80281 2.46966C9.66946 2.41644 9.52621 2.39257 9.38281 2.39966Z" fill="#D9C3A2"/>
<path d="M28.1633 16.3699L26.3033 18.2299C26.1592 18.3727 26.0781 18.5671 26.0781 18.7699C26.0781 18.9728 26.1592 19.1672 26.3033 19.3099L27.3033 20.3099C27.5224 20.525 27.8473 20.5916 28.1333 20.4799L30.8033 19.3899C31.0271 19.2823 31.1841 19.0721 31.224 18.8271C31.2638 18.582 31.1814 18.3329 31.0033 18.1599L29.2433 16.3899C28.9469 16.0947 28.4705 16.0859 28.1633 16.3699Z" fill="#D9C3A2"/>
<path d="M37.5326 13.81L33.8026 12.27C33.1572 12.0003 32.4125 12.1508 31.9226 12.65L30.7326 13.83C30.0644 14.5139 30.0644 15.6062 30.7326 16.29L32.1426 17.69C32.6325 18.1893 33.3772 18.3398 34.0226 18.07L37.6326 16.6C38.1871 16.3821 38.541 15.8351 38.5126 15.24C38.5254 14.6028 38.1315 14.0281 37.5326 13.81Z" fill="#006EA0"/>
</svg>
