<svg width="15" height="15" viewBox="0 0 15 15" fill="none" xmlns="http://www.w3.org/2000/svg">
<path d="M1.87318 0.873374L0.926514 1.81337L2.43985 3.32671C1.73985 4.38004 1.33318 5.64004 1.33318 7.00004C1.33318 10.68 4.31985 13.6667 7.99985 13.6667C9.35985 13.6667 10.6198 13.26 11.6732 12.56L13.1865 14.0734L14.1265 13.1334L1.87318 0.873374ZM7.99985 12.3334C5.05985 12.3334 2.66651 9.94004 2.66651 7.00004C2.66651 6.01337 2.93985 5.09337 3.41318 4.29337L10.7065 11.5867C9.90651 12.06 8.98651 12.3334 7.99985 12.3334ZM5.29318 2.41337L4.32651 1.44004C5.37985 0.740041 6.63985 0.333374 7.99985 0.333374C11.6798 0.333374 14.6665 3.32004 14.6665 7.00004C14.6665 8.36004 14.2598 9.62004 13.5598 10.6734L12.5865 9.70004C13.0598 8.90671 13.3332 7.98671 13.3332 7.00004C13.3332 4.06004 10.9398 1.66671 7.99985 1.66671C7.01318 1.66671 6.09318 1.94004 5.29318 2.41337Z" fill="#006C9E"/>
</svg>
