<?xml version="1.0" standalone="no"?>
<!DOCTYPE svg PUBLIC "-//W3C//DTD SVG 20010904//EN"
 "http://www.w3.org/TR/2001/REC-SVG-20010904/DTD/svg10.dtd">
<svg version="1.0" xmlns="http://www.w3.org/2000/svg"
 width="1540.000000pt" height="1540.000000pt" viewBox="0 0 1540.000000 1540.000000"
 preserveAspectRatio="xMidYMid meet">
<metadata>
Created by potrace 1.11, written by Peter Selinger 2001-2013
</metadata>
<g transform="translate(0.000000,1540.000000) scale(0.100000,-0.100000)"
fill="#000000" stroke="none">
<path d="M6486 11195 c-14 -13 -30 -35 -34 -47 -7 -18 -9 -629 -3 -699 1 -20
29 -52 58 -67 15 -9 147 -12 458 -12 472 0 471 0 505 54 21 32 22 688 2 732
-30 65 -23 64 -515 64 l-445 -1 -26 -24z"/>
<path d="M2466 10129 c-21 -3 -49 -18 -64 -33 l-27 -26 -2 -341 c-2 -188 0
-346 4 -353 4 -6 8 -14 8 -17 0 -4 15 -27 33 -52 24 -34 49 -54 99 -77 37 -18
75 -34 85 -35 10 -2 24 -7 31 -12 6 -4 26 -13 42 -19 37 -14 499 -201 540
-219 119 -52 286 -115 316 -119 53 -8 95 8 162 60 165 128 338 182 541 171
103 -7 229 -39 280 -73 14 -9 26 -14 26 -10 0 3 17 -6 38 -19 171 -114 282
-254 340 -432 49 -148 47 -328 -3 -478 -22 -65 -77 -175 -87 -175 -4 0 -8 -5
-8 -11 0 -11 -76 -107 -100 -125 -8 -7 -26 -22 -40 -34 -71 -63 -176 -120
-274 -150 -144 -43 -266 -44 -431 -5 -65 15 -171 67 -241 119 -129 96 -175 97
-369 15 -16 -7 -32 -13 -35 -14 -3 -1 -18 -7 -33 -13 -75 -31 -148 -61 -167
-67 -3 -1 -18 -8 -35 -15 -16 -7 -32 -14 -35 -15 -15 -5 -48 -18 -65 -26 -18
-8 -120 -49 -405 -164 -129 -52 -184 -97 -205 -169 -13 -42 -15 -165 -15 -775
l0 -725 23 -33 c21 -30 58 -48 98 -46 18 0 287 106 331 129 15 8 31 15 35 16
10 1 53 16 78 28 11 5 101 41 200 80 233 93 238 95 258 129 15 26 17 65 17
340 l0 310 73 -30 c107 -44 109 -45 147 -57 62 -19 184 -50 225 -57 77 -13 91
-14 175 -21 142 -13 324 -7 430 13 19 3 44 8 55 9 11 1 20 3 20 4 0 2 33 10
60 14 11 1 47 11 80 21 33 9 65 18 70 19 6 1 15 4 20 7 6 4 28 12 50 19 22 7
78 31 125 54 47 22 88 39 93 38 4 -1 7 3 7 8 0 6 5 10 10 10 16 0 134 76 225
144 108 81 297 272 371 376 60 85 134 206 154 252 5 12 14 30 19 38 25 43 78
179 90 232 1 4 8 26 16 48 8 22 12 40 9 40 -2 0 0 9 6 19 5 11 12 37 16 58 3
21 8 47 11 58 12 42 27 219 27 325 0 83 -9 201 -19 268 -3 17 -7 45 -9 61 -2
17 -6 33 -9 38 -3 4 -8 24 -11 43 -5 35 -32 132 -43 160 -4 8 -7 18 -8 23 -2
4 -4 9 -5 12 -1 3 -3 8 -5 13 -17 63 -122 279 -151 313 -8 8 -14 18 -14 22 0
7 -58 95 -77 117 -7 8 -36 44 -65 80 -144 181 -384 373 -588 471 -156 75 -365
144 -490 163 -19 2 -46 7 -60 10 -67 14 -310 21 -405 12 -99 -10 -153 -18
-185 -26 -19 -5 -53 -12 -75 -16 -22 -3 -45 -10 -51 -15 -6 -5 -13 -7 -16 -4
-6 6 -195 -58 -252 -86 -22 -10 -41 -19 -43 -19 -2 0 -3 29 -3 64 0 60 -3 67
-34 100 -18 20 -42 36 -52 37 -86 4 -829 3 -858 -2z"/>
<path d="M6550 10132 c-43 -4 -82 -32 -96 -68 -16 -45 -13 -3462 4 -3492 15
-26 50 -51 80 -57 27 -5 53 3 177 55 55 23 150 62 210 86 61 25 126 52 145 60
60 26 95 41 120 49 3 1 17 7 33 13 15 7 39 17 55 24 15 6 29 12 32 12 3 1 36
14 73 30 115 49 103 -135 102 1651 -1 1409 -2 1553 -17 1580 -31 58 -30 58
-475 59 -225 1 -424 0 -443 -2z"/>
<path d="M9698 10095 c-2 -1 -45 -5 -97 -9 -52 -4 -97 -8 -100 -10 -3 -2 -24
-7 -46 -10 -73 -12 -98 -17 -105 -21 -4 -2 -22 -7 -41 -10 -19 -4 -38 -8 -44
-9 -5 -1 -14 -4 -20 -7 -5 -4 -35 -14 -65 -24 -30 -10 -59 -20 -65 -24 -5 -3
-15 -6 -21 -7 -19 -3 -229 -107 -232 -116 -2 -4 -8 -8 -13 -8 -13 0 -133 -81
-137 -92 -2 -4 -8 -8 -14 -8 -37 0 -277 -239 -396 -395 -68 -89 -194 -332
-231 -445 -12 -36 -25 -72 -28 -80 -3 -8 -8 -24 -10 -35 -8 -37 -11 -50 -13
-52 -3 -3 -3 -3 -15 -58 -4 -22 -9 -44 -11 -50 -5 -25 -17 -104 -21 -145 -7
-70 -6 -350 0 -400 4 -25 9 -63 12 -85 7 -52 42 -198 62 -255 8 -25 16 -49 17
-55 2 -5 6 -19 10 -30 4 -11 11 -29 15 -40 24 -64 127 -260 176 -335 39 -58
40 -60 70 -94 14 -16 25 -33 25 -37 0 -11 225 -236 279 -279 24 -19 60 -46 80
-59 20 -14 38 -28 39 -33 2 -4 8 -8 14 -8 5 0 28 -13 51 -29 52 -35 203 -112
277 -141 63 -25 231 -78 269 -85 14 -3 37 -7 51 -10 14 -3 39 -7 55 -10 17 -3
44 -8 60 -12 39 -8 1039 -16 1082 -8 39 7 88 46 109 88 20 38 20 103 1 135 -5
6 -6 12 -3 12 3 0 -2 16 -10 35 -8 19 -14 36 -13 37 1 2 -5 23 -12 48 -7 25
-13 47 -14 50 -1 3 -7 25 -15 50 -7 25 -14 50 -16 55 -1 6 -9 30 -17 55 -9 25
-30 95 -47 155 -38 131 -56 163 -108 193 -39 22 -47 22 -401 22 -291 0 -377 3
-439 16 -255 52 -462 220 -536 433 -7 23 -11 43 -7 46 4 2 543 4 1197 4 654 0
1192 0 1197 2 4 1 11 2 17 3 14 2 70 56 71 69 8 73 10 116 11 267 2 175 -3
255 -22 346 -5 27 -12 60 -14 74 -28 150 -144 440 -223 556 -11 16 -39 58 -64
94 -24 36 -48 70 -54 76 -5 6 -30 35 -55 65 -56 66 -132 143 -190 191 -25 21
-56 47 -70 59 -37 32 -230 159 -230 152 0 -3 -8 0 -17 8 -17 13 -95 53 -168
84 -95 41 -237 86 -277 88 -10 1 -18 4 -18 8 0 4 -8 6 -17 4 -10 -1 -22 0 -28
3 -5 3 -19 7 -31 8 -12 1 -39 5 -60 9 -89 14 -336 28 -346 20z m247 -915 c189
-38 387 -182 467 -342 50 -98 56 -116 62 -183 4 -44 -14 -89 -43 -104 -12 -7
-251 -11 -658 -11 l-640 0 -28 24 c-22 19 -29 34 -31 70 -1 25 2 48 7 52 5 3
7 10 3 15 -3 6 -2 18 2 27 4 9 8 19 9 22 1 3 6 16 12 30 6 14 12 30 13 35 2 6
19 35 40 65 128 188 337 305 564 316 44 3 81 6 83 8 2 2 21 0 41 -4 20 -5 64
-14 97 -20z"/>
<path d="M310 9705 c-26 -28 -39 -80 -29 -115 21 -70 58 -258 55 -280 -2 -14
-4 -30 -5 -37 0 -6 -22 -31 -47 -55 -26 -23 -59 -54 -74 -68 -14 -14 -44 -41
-66 -60 -23 -19 -46 -46 -53 -58 -30 -56 -25 -78 59 -256 45 -97 56 -146 39
-179 -16 -30 -112 -161 -121 -165 -5 -2 -8 -10 -8 -17 0 -7 -4 -15 -8 -17 -18
-8 -48 -66 -51 -98 -1 -25 6 -47 23 -73 14 -21 26 -42 26 -47 0 -6 3 -10 8
-10 4 0 18 -18 32 -40 14 -22 28 -40 32 -40 5 0 8 -6 8 -14 0 -8 4 -16 8 -18
18 -7 52 -78 52 -107 0 -18 -10 -53 -22 -79 -12 -26 -23 -49 -23 -52 -1 -3
-21 -44 -43 -91 -23 -48 -42 -96 -42 -107 0 -51 31 -91 161 -208 62 -56 90
-91 96 -120 7 -39 7 -38 -17 -129 -11 -44 -23 -91 -26 -105 -3 -14 -8 -34 -12
-45 -17 -53 -4 -114 33 -145 12 -10 21 -10 38 -2 12 6 69 30 127 52 139 54
184 75 199 93 10 13 6 33 -24 114 -38 99 -72 201 -81 238 -7 28 -10 38 -17 55
-4 8 -9 26 -11 40 -3 14 -12 52 -20 85 -8 33 -17 74 -20 90 -2 17 -12 68 -20
115 -8 47 -18 110 -21 140 -3 30 -8 84 -12 120 -9 89 -9 446 0 550 12 129 21
204 31 256 2 12 7 38 10 58 3 19 11 57 17 83 6 27 12 56 14 66 2 10 7 27 10
37 3 10 7 27 10 37 14 71 86 293 133 410 20 49 20 53 4 72 -9 11 -39 29 -67
40 -27 11 -98 40 -157 64 l-106 45 -22 -23z"/>
<path d="M1430 8956 c299 -300 554 -546 565 -549 12 -2 29 -1 38 2 20 7 204
187 218 214 22 41 -1 71 -219 289 l-218 217 -154 64 c-85 35 -213 88 -285 117
-71 29 -134 55 -140 58 -5 4 -16 7 -23 8 -6 1 -31 11 -55 22 -73 33 -131 57
-134 55 -1 -1 -26 9 -55 22 -29 14 -60 25 -68 25 -8 0 231 -245 530 -544z"/>
<path d="M787 9392 c-10 -10 -17 -25 -17 -33 0 -8 -4 -19 -9 -24 -11 -12 -61
-183 -95 -325 -38 -159 -38 -161 -14 -181 20 -18 21 -18 47 0 53 39 341 338
341 355 0 19 -205 226 -224 226 -7 0 -20 -8 -29 -18z"/>
<path d="M1101 9073 c-8 -3 -124 -116 -258 -250 -284 -283 -259 -236 -261
-505 -1 -153 0 -164 20 -185 13 -14 33 -23 52 -23 28 0 71 40 370 339 187 186
343 346 348 356 19 32 -4 68 -105 169 -100 99 -125 114 -166 99z"/>
<path d="M2206 8941 c-9 -10 -16 -23 -16 -30 0 -16 156 -171 173 -171 7 0 32
20 56 44 65 67 56 79 -99 139 -97 37 -97 37 -114 18z"/>
<path d="M2584 8794 c-23 -10 -986 -980 -995 -1002 -13 -34 7 -65 113 -168 94
-92 126 -111 159 -93 10 5 255 246 544 535 479 479 525 528 525 558 0 19 -8
40 -17 49 -21 18 -247 112 -289 120 -16 3 -34 4 -40 1z"/>
<path d="M1261 8539 c-111 -110 -205 -208 -211 -218 -5 -10 -6 -26 -3 -37 11
-32 419 -426 438 -422 9 1 112 99 230 217 213 213 215 215 199 238 -34 53
-413 423 -432 423 -13 0 -94 -74 -221 -201z"/>
<path d="M3060 8562 c-50 -31 -173 -158 -191 -198 -17 -38 -18 -59 -3 -122 2
-13 49 -68 103 -121 97 -96 135 -119 191 -116 20 1 170 58 310 118 14 6 27 11
30 12 35 8 102 49 115 68 19 30 27 101 14 133 -15 41 -51 72 -108 95 -31 13
-59 27 -62 32 -3 5 -10 8 -15 8 -13 -1 -43 9 -89 29 -83 37 -165 68 -165 63 0
-3 -6 -1 -12 4 -20 15 -90 12 -118 -5z"/>
<path d="M917 8189 c-22 -13 -185 -176 -203 -204 -22 -34 -8 -65 58 -133 295
-298 571 -568 589 -574 15 -6 60 8 167 52 80 33 149 63 154 68 5 5 11 25 14
44 6 35 5 37 -353 394 -366 366 -381 379 -426 353z"/>
<path d="M2578 8093 c-139 -138 -140 -145 -45 -240 78 -79 84 -80 217 -25 130
53 134 55 140 56 44 11 76 68 57 102 -6 10 -51 60 -101 111 -131 133 -129 133
-268 -4z"/>
<path d="M2248 7763 c-53 -54 -97 -105 -98 -113 -8 -59 19 -59 167 0 117 47
163 76 163 102 0 17 -99 108 -117 108 -10 0 -62 -44 -115 -97z"/>
<path d="M641 7781 c-9 -6 -12 -23 -8 -62 3 -30 8 -61 11 -69 3 -8 8 -26 10
-40 3 -14 10 -43 16 -65 6 -22 13 -51 16 -65 2 -14 10 -41 16 -60 7 -19 13
-37 13 -40 4 -22 50 -159 59 -172 22 -36 51 -19 156 87 77 78 105 112 103 129
-2 28 -336 366 -361 366 -10 0 -23 -4 -31 -9z"/>
<path d="M1074 7287 c-55 -47 -204 -201 -204 -209 0 -12 36 -1 170 52 135 54
142 59 159 103 9 22 6 31 -13 54 -33 40 -68 40 -112 0z"/>
<path d="M4617 5824 c-1 -1 -21 -4 -45 -8 -65 -9 -125 -39 -170 -86 -56 -57
-77 -124 -81 -257 -1 -22 -5 -23 -76 -23 l-76 0 3 -67 3 -68 69 0 c60 0 70 -3
76 -20 4 -11 4 -27 0 -35 -4 -8 -4 -24 0 -35 4 -11 4 -34 -1 -52 -4 -18 -4
-35 0 -37 8 -5 7 -48 -2 -62 -3 -5 -2 -16 3 -23 4 -8 4 -27 0 -42 -5 -16 -5
-31 0 -34 5 -3 5 -18 0 -34 -4 -16 -6 -31 -4 -34 8 -8 10 -118 2 -123 -5 -3
-5 -10 -1 -17 9 -15 10 -57 1 -63 -4 -3 -5 -10 -2 -18 4 -10 -11 -12 -61 -11
-36 1 -68 -1 -70 -6 -10 -16 -7 -121 4 -132 6 -6 11 -7 11 -2 0 6 89 9 230 7
182 -2 230 0 231 10 4 70 2 111 -6 116 -5 4 -44 7 -85 7 l-75 1 0 309 c-1 171
1 315 2 321 3 7 42 10 108 9 58 -1 106 1 106 4 1 3 2 34 3 68 l2 62 -110 3
-110 3 0 30 c0 132 58 195 175 192 l59 -2 0 72 c0 69 -1 73 -22 74 -13 0 -38
2 -56 3 -18 1 -33 2 -35 0z"/>
<path d="M12340 5812 c-11 -4 -14 -131 -2 -133 4 -1 35 -2 70 -3 36 -1 66 -6
70 -13 4 -6 6 -33 4 -60 -1 -26 -2 -52 -2 -58 0 -5 1 -59 3 -118 2 -95 1 -106
-11 -88 -27 39 -59 69 -105 95 -26 14 -47 24 -47 21 0 -2 -12 0 -27 6 -81 31
-249 -3 -331 -66 -74 -57 -142 -167 -161 -260 -8 -40 -7 -244 1 -275 4 -14 9
-36 12 -50 21 -95 109 -206 199 -249 52 -26 142 -47 182 -43 73 7 99 13 138
30 26 11 52 25 59 31 44 37 68 61 68 66 0 10 30 37 31 28 1 -4 1 -22 1 -39 0
-18 11 -45 23 -60 23 -29 24 -29 149 -33 l126 -3 -3 68 -2 68 -54 1 c-36 0
-57 6 -65 16 -8 12 -11 167 -10 567 l0 552 -25 1 c-161 3 -283 3 -291 1z m-2
-516 c29 -15 76 -64 105 -108 36 -57 53 -201 33 -293 -29 -135 -108 -210 -233
-222 -173 -17 -293 144 -271 367 14 145 77 233 198 273 27 9 140 -2 168 -17z"/>
<path d="M11334 5723 l1 -88 90 0 91 -1 0 88 1 88 -92 0 -92 0 1 -87z"/>
<path d="M5308 5475 c-2 -1 -28 -5 -59 -8 -247 -26 -433 -250 -416 -497 22
-319 321 -520 639 -429 24 7 45 13 48 13 22 4 133 84 165 120 58 65 74 91 104
171 12 32 29 144 26 167 -2 7 -5 33 -8 58 -19 154 -133 301 -282 362 -56 23
-206 53 -217 43z m143 -182 c56 -26 120 -87 148 -142 12 -22 19 -41 15 -41 -4
0 -1 -7 6 -15 7 -8 9 -15 5 -15 -4 0 -3 -6 2 -12 9 -13 9 -102 0 -148 -20 -98
-84 -175 -182 -221 -49 -22 -72 -27 -125 -25 -36 1 -75 5 -86 8 -80 23 -160
94 -197 177 -28 61 -33 191 -10 253 18 47 57 106 85 126 9 7 23 19 31 26 54
55 217 70 308 29z"/>
<path d="M9508 5475 c-1 -2 -30 -5 -63 -8 -33 -3 -80 -13 -105 -22 -25 -9 -53
-19 -62 -22 -10 -3 -18 -9 -18 -13 0 -4 -10 -10 -23 -14 -33 -8 -134 -113
-164 -170 -127 -245 -32 -540 213 -657 64 -30 166 -55 184 -44 6 3 10 2 10 -2
0 -12 101 -4 165 13 114 31 245 131 293 225 66 129 77 296 27 416 -8 18 -15
37 -16 41 -4 19 -69 99 -108 134 -47 40 -154 97 -200 104 -14 3 -44 7 -66 10
-22 2 -45 6 -52 9 -6 2 -13 2 -15 0z m132 -183 c63 -31 114 -82 147 -149 24
-50 28 -70 27 -138 0 -94 -2 -105 -32 -167 -44 -91 -146 -157 -253 -165 -64
-5 -161 19 -190 48 -10 10 -22 19 -27 19 -16 0 -89 102 -97 136 -2 10 -8 35
-13 55 -38 153 58 326 208 373 64 20 174 15 230 -12z"/>
<path d="M13324 5470 c-53 -6 -161 -36 -174 -50 -3 -3 -23 -18 -46 -33 -22
-15 -49 -38 -60 -50 -30 -35 -74 -95 -74 -101 0 -2 -5 -17 -12 -33 -6 -15 -12
-32 -13 -38 -2 -5 -7 -28 -13 -50 -10 -41 -11 -45 -12 -117 -3 -247 178 -452
419 -475 81 -7 124 -5 205 13 68 15 206 89 206 111 0 10 -53 109 -66 122 -2 2
-12 -3 -21 -11 -57 -51 -160 -86 -252 -86 -63 0 -163 28 -169 48 -2 6 -9 10
-15 10 -19 0 -77 71 -98 120 -11 24 -22 63 -24 87 l-5 43 327 -1 c255 0 328 3
334 13 13 21 3 158 -16 213 -51 152 -154 241 -300 261 -22 3 -44 6 -50 8 -5 1
-37 -1 -71 -4z m163 -171 c19 -12 44 -38 57 -58 25 -39 50 -126 41 -141 -3 -5
-111 -9 -240 -9 -230 1 -235 1 -235 21 0 25 38 104 65 136 72 85 218 109 312
51z"/>
<path d="M15028 5475 c-2 -2 -25 -5 -52 -8 -55 -7 -132 -34 -160 -57 -78 -63
-100 -103 -100 -185 -1 -104 48 -173 163 -230 62 -31 65 -32 171 -71 88 -33
145 -66 160 -93 21 -40 12 -91 -21 -122 -41 -38 -92 -51 -179 -44 -119 8 -180
53 -180 130 l0 41 -70 -1 c-38 -1 -72 -4 -75 -7 -10 -9 -8 -123 3 -148 33 -78
152 -145 274 -155 29 -2 55 -5 58 -6 3 0 16 -1 30 -1 22 0 45 3 120 16 8 1 28
8 43 14 16 7 32 12 38 12 26 0 107 85 130 136 34 76 14 190 -44 245 -46 44
-149 96 -247 124 -14 4 -54 21 -90 37 -172 76 -135 228 55 228 98 0 155 -39
155 -106 l0 -42 71 -4 c56 -2 73 0 78 12 9 19 7 108 -3 140 -21 64 -114 121
-218 135 -74 9 -107 12 -110 10z"/>
<path d="M6520 5458 c-86 -15 -179 -86 -217 -165 -8 -18 -19 -33 -23 -33 -4 0
-7 27 -7 60 1 66 -14 103 -48 118 -20 9 -129 15 -243 13 l-33 -1 3 -67 3 -67
68 -1 c37 -1 70 -5 74 -9 7 -7 13 -601 6 -622 -2 -6 -30 -10 -68 -9 l-65 2 0
-69 0 -68 223 2 222 3 1 50 c0 81 0 81 -67 80 -33 -1 -62 2 -65 6 -2 4 -4 24
-4 46 0 44 0 67 0 88 0 8 0 26 0 40 0 14 -1 31 -1 38 -4 41 15 156 32 203 44
116 134 192 229 191 26 0 52 3 57 6 6 4 11 41 10 86 0 90 -4 93 -87 79z"/>
<path d="M7610 5460 c-63 -17 -137 -69 -176 -122 l-21 -28 -5 51 c-8 79 -24
87 -179 88 -96 1 -128 -1 -131 -11 -3 -11 -3 -102 1 -118 0 -3 31 -5 67 -5 44
-1 68 -5 74 -15 5 -7 8 -232 7 -499 l-2 -486 -62 -1 c-35 -1 -66 -2 -71 -3 -4
0 -7 -30 -7 -66 l0 -65 232 0 233 0 -3 68 -3 67 -70 0 -70 0 0 177 -1 178 20
-27 c23 -33 101 -93 120 -93 7 0 18 -5 23 -10 9 -9 99 -24 129 -22 157 11 279
91 343 223 81 167 74 411 -17 549 -84 128 -181 182 -326 179 -44 -1 -91 -5
-105 -9z m177 -164 c84 -44 142 -147 149 -266 12 -206 -79 -340 -242 -357
-209 -22 -341 255 -239 502 24 58 90 117 153 135 41 12 143 4 179 -14z"/>
<path d="M8845 5459 c-71 -12 -84 -17 -122 -46 -57 -42 -82 -72 -110 -130 -13
-29 -25 -53 -26 -53 -1 0 -1 30 0 68 5 134 -17 152 -195 152 l-128 0 2 -62 c1
-35 2 -65 3 -68 0 -3 28 -5 62 -5 38 1 66 -3 74 -11 17 -17 18 -621 1 -627 -6
-2 -36 -3 -67 -2 l-55 2 -1 -68 -1 -69 224 0 224 0 0 65 c0 45 -4 65 -12 66
-7 1 -33 3 -58 4 -25 1 -50 3 -56 4 -12 1 -12 304 0 349 3 12 8 31 11 43 9 41
47 110 80 143 47 49 89 68 162 74 60 4 63 6 64 31 0 14 1 49 2 78 2 61 -13 73
-78 62z"/>
<path d="M14475 5455 c-27 -6 -61 -17 -75 -25 -45 -24 -108 -92 -135 -143 -14
-29 -24 -42 -21 -30 2 13 0 26 -5 29 -5 3 -5 13 1 23 5 10 7 20 5 22 -2 3 -7
20 -10 39 -3 19 -17 45 -31 58 -24 21 -33 22 -157 20 l-131 -3 0 -53 c-1 -30
2 -59 6 -65 3 -6 34 -11 67 -12 33 0 65 -5 71 -11 11 -11 17 -604 7 -621 -3
-5 -33 -8 -66 -8 -34 1 -62 -1 -62 -4 -1 -3 -2 -34 -3 -68 l-2 -63 223 0 c142
0 223 4 224 10 0 6 1 26 1 45 0 87 5 81 -67 80 -38 -1 -66 3 -68 9 -10 33 2
308 16 363 41 159 133 243 266 243 l46 0 0 82 c0 79 -1 82 -25 88 -14 4 -47 2
-75 -5z"/>
<path d="M10088 5449 c-11 -7 -15 -116 -4 -126 4 -4 29 -7 56 -8 27 -1 51 -3
54 -6 2 -2 36 -89 75 -194 39 -104 74 -197 78 -205 3 -8 7 -17 8 -20 4 -11 17
-46 25 -65 4 -11 18 -47 30 -80 12 -33 26 -69 30 -80 4 -11 17 -42 27 -70 l19
-50 93 -3 c86 -3 124 6 119 26 -2 7 32 103 51 147 18 40 71 180 71 186 0 4 7
23 15 43 8 20 15 38 16 41 0 2 11 29 24 60 14 30 22 55 19 55 -4 0 -2 6 3 13
6 6 25 53 44 102 18 50 37 93 41 96 5 3 30 5 55 4 25 -1 47 3 49 9 2 6 5 37 7
69 l3 57 -138 1 c-76 0 -158 0 -183 0 -100 0 -91 6 -89 -63 1 -35 2 -65 3 -68
0 -3 22 -5 49 -4 26 1 50 0 53 -2 6 -3 -26 -103 -54 -174 -6 -15 -63 -172
-118 -325 -15 -44 -28 -89 -29 -99 0 -26 -8 -17 -14 17 -2 15 -18 64 -35 109
-16 46 -59 164 -95 263 -35 99 -66 187 -68 195 -2 12 8 15 52 15 l55 0 2 67 1
67 -195 3 c-107 2 -199 0 -205 -3z"/>
<path d="M11186 5388 c1 -35 2 -66 3 -69 0 -3 32 -4 71 -4 56 2 70 -1 74 -14
2 -9 3 -153 2 -321 l-1 -305 -62 -1 c-35 -1 -67 -2 -71 -3 -5 0 -9 -29 -8 -63
l1 -63 230 -3 230 -2 0 65 c1 46 -3 65 -12 66 -7 1 -35 3 -63 4 -27 1 -55 3
-60 4 -7 1 -10 116 -10 349 0 191 1 364 0 385 l0 37 -163 0 -162 0 1 -62z"/>
</g>
</svg>
