<svg id="mermaid-1634925245727" width="100%" xmlns="http://www.w3.org/2000/svg" xmlns:xlink="http://www.w3.org/1999/xlink" height="551" style="max-width: 901.5px;" viewBox="-27 -20 901.5 551"><style>#mermaid-1634925245727{font-family:"trebuchet ms",verdana,arial,sans-serif;font-size:16px;fill:#333;}#mermaid-1634925245727 .error-icon{fill:#552222;}#mermaid-1634925245727 .error-text{fill:#552222;stroke:#552222;}#mermaid-1634925245727 .edge-thickness-normal{stroke-width:2px;}#mermaid-1634925245727 .edge-thickness-thick{stroke-width:3.5px;}#mermaid-1634925245727 .edge-pattern-solid{stroke-dasharray:0;}#mermaid-1634925245727 .edge-pattern-dashed{stroke-dasharray:3;}#mermaid-1634925245727 .edge-pattern-dotted{stroke-dasharray:2;}#mermaid-1634925245727 .marker{fill:#333333;stroke:#333333;}#mermaid-1634925245727 .marker.cross{stroke:#333333;}#mermaid-1634925245727 svg{font-family:"trebuchet ms",verdana,arial,sans-serif;font-size:16px;}#mermaid-1634925245727 g.classGroup text{fill:#9370DB;fill:#131300;stroke:none;font-family:"trebuchet ms",verdana,arial,sans-serif;font-size:10px;}#mermaid-1634925245727 g.classGroup text .title{font-weight:bolder;}#mermaid-1634925245727 .classTitle{font-weight:bolder;}#mermaid-1634925245727 .node rect,#mermaid-1634925245727 .node circle,#mermaid-1634925245727 .node ellipse,#mermaid-1634925245727 .node polygon,#mermaid-1634925245727 .node path{fill:#ECECFF;stroke:#9370DB;stroke-width:1px;}#mermaid-1634925245727 .divider{stroke:#9370DB;stroke:1;}#mermaid-1634925245727 g.clickable{cursor:pointer;}#mermaid-1634925245727 g.classGroup rect{fill:#ECECFF;stroke:#9370DB;}#mermaid-1634925245727 g.classGroup line{stroke:#9370DB;stroke-width:1;}#mermaid-1634925245727 .classLabel .box{stroke:none;stroke-width:0;fill:#ECECFF;opacity:0.5;}#mermaid-1634925245727 .classLabel .label{fill:#9370DB;font-size:10px;}#mermaid-1634925245727 .relation{stroke:#333333;stroke-width:1;fill:none;}#mermaid-1634925245727 .dashed-line{stroke-dasharray:3;}#mermaid-1634925245727 #compositionStart,#mermaid-1634925245727 .composition{fill:#333333 !important;stroke:#333333 !important;stroke-width:1;}#mermaid-1634925245727 #compositionEnd,#mermaid-1634925245727 .composition{fill:#333333 !important;stroke:#333333 !important;stroke-width:1;}#mermaid-1634925245727 #dependencyStart,#mermaid-1634925245727 .dependency{fill:#333333 !important;stroke:#333333 !important;stroke-width:1;}#mermaid-1634925245727 #dependencyStart,#mermaid-1634925245727 .dependency{fill:#333333 !important;stroke:#333333 !important;stroke-width:1;}#mermaid-1634925245727 #extensionStart,#mermaid-1634925245727 .extension{fill:#333333 !important;stroke:#333333 !important;stroke-width:1;}#mermaid-1634925245727 #extensionEnd,#mermaid-1634925245727 .extension{fill:#333333 !important;stroke:#333333 !important;stroke-width:1;}#mermaid-1634925245727 #aggregationStart,#mermaid-1634925245727 .aggregation{fill:#ECECFF !important;stroke:#333333 !important;stroke-width:1;}#mermaid-1634925245727 #aggregationEnd,#mermaid-1634925245727 .aggregation{fill:#ECECFF !important;stroke:#333333 !important;stroke-width:1;}#mermaid-1634925245727 .edgeTerminals{font-size:11px;}#mermaid-1634925245727:root{--mermaid-font-family:"trebuchet ms",verdana,arial,sans-serif;}#mermaid-1634925245727 class{fill:apa;}</style><g></g><defs><marker id="extensionStart" class="extension" refX="0" refY="7" markerWidth="190" markerHeight="240" orient="auto"><path d="M 1,7 L18,13 V 1 Z"></path></marker></defs><defs><marker id="extensionEnd" refX="19" refY="7" markerWidth="20" markerHeight="28" orient="auto"><path d="M 1,1 V 13 L18,7 Z"></path></marker></defs><defs><marker id="compositionStart" class="extension" refX="0" refY="7" markerWidth="190" markerHeight="240" orient="auto"><path d="M 18,7 L9,13 L1,7 L9,1 Z"></path></marker></defs><defs><marker id="compositionEnd" refX="19" refY="7" markerWidth="20" markerHeight="28" orient="auto"><path d="M 18,7 L9,13 L1,7 L9,1 Z"></path></marker></defs><defs><marker id="aggregationStart" class="extension" refX="0" refY="7" markerWidth="190" markerHeight="240" orient="auto"><path d="M 18,7 L9,13 L1,7 L9,1 Z"></path></marker></defs><defs><marker id="aggregationEnd" refX="19" refY="7" markerWidth="20" markerHeight="28" orient="auto"><path d="M 18,7 L9,13 L1,7 L9,1 Z"></path></marker></defs><defs><marker id="dependencyStart" class="extension" refX="0" refY="7" markerWidth="190" markerHeight="240" orient="auto"><path d="M 5,7 L9,13 L1,7 L9,1 Z"></path></marker></defs><defs><marker id="dependencyEnd" refX="19" refY="7" markerWidth="20" markerHeight="28" orient="auto"><path d="M 18,7 L9,13 L14,7 L9,1 Z"></path></marker></defs><g id="classid-Attendance-0" class="classGroup" transform="translate(1,481 )"><rect x="0" y="0" width="65" height="30" class=" "></rect><text y="15" x="0"><tspan class="title" x="5">Attendance</tspan></text><line x1="0" y1="21" y2="21" x2="65"></line><text x="5" y="31" fill="white" class="classText"></text><line x1="0" y1="26" y2="26" x2="65"></line><text x="5" y="41" fill="white" class="classText"></text></g><g id="classid-Business-1" class="classGroup" transform="translate(5.5,80.5 )"><rect x="0" y="0" width="56" height="30" class=" "></rect><text y="15" x="0"><tspan class="title" x="5">Business</tspan></text><line x1="0" y1="21" y2="21" x2="56"></line><text x="5" y="31" fill="white" class="classText"></text><line x1="0" y1="26" y2="26" x2="56"></line><text x="5" y="41" fill="white" class="classText"></text></g><g id="classid-Case-2" class="classGroup" transform="translate(16,161 )"><rect x="0" y="0" width="35" height="30" class=" "></rect><text y="15" x="0"><tspan class="title" x="5">Case</tspan></text><line x1="0" y1="21" y2="21" x2="35"></line><text x="5" y="31" fill="white" class="classText"></text><line x1="0" y1="26" y2="26" x2="35"></line><text x="5" y="41" fill="white" class="classText"></text></g><g id="classid-Child-3" class="classGroup" transform="translate(16,321 )"><rect x="0" y="0" width="35" height="30" class=" "></rect><text y="15" x="0"><tspan class="title" x="5">Child</tspan></text><line x1="0" y1="21" y2="21" x2="35"></line><text x="5" y="31" fill="white" class="classText"></text><line x1="0" y1="26" y2="26" x2="35"></line><text x="5" y="41" fill="white" class="classText"></text></g><g id="classid-ChildCasePeriod-4" class="classGroup" transform="translate(28,241 )"><rect x="0" y="0" width="92" height="30" class=" "></rect><text y="15" x="0"><tspan class="title" x="5">ChildCasePeriod</tspan></text><line x1="0" y1="21" y2="21" x2="92"></line><text x="5" y="31" fill="white" class="classText"></text><line x1="0" y1="26" y2="26" x2="92"></line><text x="5" y="41" fill="white" class="classText"></text></g><g id="classid-ServiceDay-5" class="classGroup" transform="translate(0,401 )"><rect x="0" y="0" width="67" height="30" class=" "></rect><text y="15" x="0"><tspan class="title" x="5">ServiceDay</tspan></text><line x1="0" y1="21" y2="21" x2="67"></line><text x="5" y="31" fill="white" class="classText"></text><line x1="0" y1="26" y2="26" x2="67"></line><text x="5" y="41" fill="white" class="classText"></text></g><g id="classid-User-6" class="classGroup" transform="translate(17,0 )"><rect x="0" y="0" width="33" height="30" class=" "></rect><text y="15" x="0"><tspan class="title" x="5">User</tspan></text><line x1="0" y1="21" y2="21" x2="33"></line><text x="5" y="31" fill="white" class="classText"></text><line x1="0" y1="26" y2="26" x2="33"></line><text x="5" y="41" fill="white" class="classText"></text></g><g id="classid-State-7" class="classGroup" transform="translate(476.5,0 )"><rect x="0" y="0" width="35" height="30" class=" "></rect><text y="15" x="0"><tspan class="title" x="5">State</tspan></text><line x1="0" y1="21" y2="21" x2="35"></line><text x="5" y="31" fill="white" class="classText"></text><line x1="0" y1="26" y2="26" x2="35"></line><text x="5" y="41" fill="white" class="classText"></text></g><g id="classid-StateDurationRule-8" class="classGroup" transform="translate(111.5,80.5 )"><rect x="0" y="0" width="98" height="30" class=" "></rect><text y="15" x="0"><tspan class="title" x="5">StateDurationRule</tspan></text><line x1="0" y1="21" y2="21" x2="98"></line><text x="5" y="31" fill="white" class="classText"></text><line x1="0" y1="26" y2="26" x2="98"></line><text x="5" y="41" fill="white" class="classText"></text></g><g id="classid-StateAbsenceLimit-9" class="classGroup" transform="translate(259.5,80.5 )"><rect x="0" y="0" width="103" height="30" class=" "></rect><text y="15" x="0"><tspan class="title" x="5">StateAbsenceLimit</tspan></text><line x1="0" y1="21" y2="21" x2="103"></line><text x="5" y="31" fill="white" class="classText"></text><line x1="0" y1="26" y2="26" x2="103"></line><text x="5" y="41" fill="white" class="classText"></text></g><g id="classid-StateEarnedRevenueCalculator-10" class="classGroup" transform="translate(412.5,80.5 )"><rect x="0" y="0" width="163" height="30" class=" "></rect><text y="15" x="0"><tspan class="title" x="5">StateEarnedRevenueCalculator</tspan></text><line x1="0" y1="21" y2="21" x2="163"></line><text x="5" y="31" fill="white" class="classText"></text><line x1="0" y1="26" y2="26" x2="163"></line><text x="5" y="41" fill="white" class="classText"></text></g><g id="classid-StateRate-11" class="classGroup" transform="translate(625.5,80.5 )"><rect x="0" y="0" width="57" height="30" class=" "></rect><text y="15" x="0"><tspan class="title" x="5">StateRate</tspan></text><line x1="0" y1="21" y2="21" x2="57"></line><text x="5" y="31" fill="white" class="classText"></text><line x1="0" y1="26" y2="26" x2="57"></line><text x="5" y="41" fill="white" class="classText"></text></g><g id="classid-StateRateConfiguration-12" class="classGroup" transform="translate(732.5,80 )"><rect x="0" y="0" width="122" height="31" class=" "></rect><text y="15" x="0"><tspan class="title" x="5">StateRateConfiguration</tspan></text><line x1="0" y1="22" y2="22" x2="122"></line><text x="5" y="32" fill="white" class="classText"></text><line x1="0" y1="27" y2="27" x2="122"></line><text x="5" y="42" fill="white" class="classText"></text></g><path d="M33.5,30L33.5,34.166666666666664C33.5,38.333333333333336,33.5,46.666666666666664,33.5,55.083333333333336C33.5,63.5,33.5,72,33.5,76.25L33.5,80.5" id="edge0" class="relation" marker-start="url(#compositionStart)"></path><g class="cardinality"><text class="type1" x="23.5" y="42.5" fill="black" font-size="6">1</text></g><g class="cardinality"><text class="type2" x="38.5" y="68" fill="black" font-size="6">*</text></g><path d="M33.5,110.5L33.5,114.75C33.5,119,33.5,127.5,33.5,135.91666666666666C33.5,144.33333333333334,33.5,152.66666666666666,33.5,156.83333333333334L33.5,161" id="edge1" class="relation" marker-start="url(#compositionStart)"></path><g class="cardinality"><text class="type1" x="23.5" y="123" fill="black" font-size="6">1</text></g><g class="cardinality"><text class="type2" x="38.5" y="148.5" fill="black" font-size="6">*</text></g><path d="M48.6875,191L52.90625,195.16666666666666C57.125,199.33333333333334,65.5625,207.66666666666666,69.78125,216C74,224.33333333333334,74,232.66666666666666,74,236.83333333333334L74,241" id="edge2" class="relation" marker-start="url(#compositionStart)"></path><g class="cardinality"><text class="type1" x="50.55405021938123" y="206.89861598625893" fill="black" font-size="6">1</text></g><g class="cardinality"><text class="type2" x="79" y="228.5" fill="black" font-size="6">1..*</text></g><path d="M18.3125,191L14.09375,195.16666666666666C9.875,199.33333333333334,1.4375,207.66666666666666,-2.78125,218.5C-7,229.33333333333334,-7,242.66666666666666,-7,256C-7,269.3333333333333,-7,282.6666666666667,-2.78125,293.5C1.4375,304.3333333333333,9.875,312.6666666666667,14.09375,316.8333333333333L18.3125,321" id="edge3" class="relation" marker-start="url(#compositionStart)"></path><g class="cardinality"><text class="type1" x="2.3919245993954164" y="192.66891549027028" fill="black" font-size="6">1</text></g><g class="cardinality"><text class="type2" x="12.932443485312934" y="308.6588091377382" fill="black" font-size="6">1..*</text></g><path d="M74,271L74,275.1666666666667C74,279.3333333333333,74,287.6666666666667,69.78125,296C65.5625,304.3333333333333,57.125,312.6666666666667,52.90625,316.8333333333333L48.6875,321" id="edge4" class="relation" marker-end="url(#compositionEnd)"></path><g class="cardinality"><text class="type1" x="69" y="283.5" fill="black" font-size="6">1..*</text></g><g class="cardinality"><text class="type2" x="64.60807540060459" y="319.3310845097297" fill="black" font-size="6">1</text></g><path d="M33.5,351L33.5,355.1666666666667C33.5,359.3333333333333,33.5,367.6666666666667,33.5,376C33.5,384.3333333333333,33.5,392.6666666666667,33.5,396.8333333333333L33.5,401" id="edge5" class="relation" marker-start="url(#aggregationStart)"></path><g class="cardinality"><text class="type1" x="23.5" y="363.5" fill="black" font-size="6">1</text></g><g class="cardinality"><text class="type2" x="38.5" y="388.5" fill="black" font-size="6">*</text></g><path d="M33.5,431L33.5,435.1666666666667C33.5,439.3333333333333,33.5,447.6666666666667,33.5,456C33.5,464.3333333333333,33.5,472.6666666666667,33.5,476.8333333333333L33.5,481" id="edge6" class="relation" marker-start="url(#aggregationStart)"></path><g class="cardinality"><text class="type1" x="23.5" y="443.5" fill="black" font-size="6">1</text></g><g class="cardinality"><text class="type2" x="38.5" y="468.5" fill="black" font-size="6">1..*</text></g><path d="M476.5,17.09895052473763L423.8333333333333,23.415792103948025C371.1666666666667,29.732633683158422,265.8333333333333,42.36631684157921,213.16666666666666,52.9331584207896C160.5,63.5,160.5,72,160.5,76.25L160.5,80.5" id="edge7" class="relation" marker-start="url(#compositionStart)"></path><g class="cardinality"><text class="type1" x="462.89808626958364" y="8.658693249611979" fill="black" font-size="6">1</text></g><g class="cardinality"><text class="type2" x="165.5" y="68" fill="black" font-size="6">*</text></g><path d="M476.5,18.825136612021858L448.9166666666667,24.854280510018214C421.3333333333333,30.883424408014573,366.1666666666667,42.94171220400728,338.5833333333333,53.220856102003644C311,63.5,311,72,311,76.25L311,80.5" id="edge8" class="relation" marker-start="url(#compositionStart)"></path><g class="cardinality"><text class="type1" x="462.1529379303266" y="11.725009150564835" fill="black" font-size="6">1</text></g><g class="cardinality"><text class="type2" x="316" y="68" fill="black" font-size="6">*</text></g><path d="M494,30L494,34.166666666666664C494,38.333333333333336,494,46.666666666666664,494,55.083333333333336C494,63.5,494,72,494,76.25L494,80.5" id="edge9" class="relation" marker-start="url(#compositionStart)"></path><g class="cardinality"><text class="type1" x="484" y="42.5" fill="black" font-size="6">1</text></g><g class="cardinality"><text class="type2" x="499" y="68" fill="black" font-size="6">*</text></g><path d="M511.5,19.375L535.25,25.3125C559,31.25,606.5,43.125,630.25,53.3125C654,63.5,654,72,654,76.25L654,80.5" id="edge10" class="relation" marker-start="url(#compositionStart)"></path><g class="cardinality"><text class="type1" x="521.2014250014533" y="32.10812031440748" fill="black" font-size="6">1</text></g><g class="cardinality"><text class="type2" x="659" y="68" fill="black" font-size="6">*</text></g><path d="M511.5,17.33722871452421L558.5,23.614357262103507C605.5,29.891485809682806,699.5,42.4457429048414,746.5,52.88953811908737C793.5,63.333333333333336,793.5,71.66666666666667,793.5,75.83333333333333L793.5,80" id="edge11" class="relation" marker-start="url(#compositionStart)"></path><g class="cardinality"><text class="type1" x="522.5661821895336" y="28.90397465917308" fill="black" font-size="6">1</text></g><g class="cardinality"><text class="type2" x="798.5" y="67.5" fill="black" font-size="6">*</text></g></svg>