<svg id="mermaid-1635518811126" width="100%" xmlns="http://www.w3.org/2000/svg" xmlns:xlink="http://www.w3.org/1999/xlink" height="852" style="max-width: 981.25px;" viewBox="-20 -20 981.25 852"><style>#mermaid-1635518811126{font-family:"trebuchet ms",verdana,arial,sans-serif;font-size:16px;fill:#333;}#mermaid-1635518811126 .error-icon{fill:#552222;}#mermaid-1635518811126 .error-text{fill:#552222;stroke:#552222;}#mermaid-1635518811126 .edge-thickness-normal{stroke-width:2px;}#mermaid-1635518811126 .edge-thickness-thick{stroke-width:3.5px;}#mermaid-1635518811126 .edge-pattern-solid{stroke-dasharray:0;}#mermaid-1635518811126 .edge-pattern-dashed{stroke-dasharray:3;}#mermaid-1635518811126 .edge-pattern-dotted{stroke-dasharray:2;}#mermaid-1635518811126 .marker{fill:#333333;stroke:#333333;}#mermaid-1635518811126 .marker.cross{stroke:#333333;}#mermaid-1635518811126 svg{font-family:"trebuchet ms",verdana,arial,sans-serif;font-size:16px;}#mermaid-1635518811126 g.classGroup text{fill:#9370DB;fill:#131300;stroke:none;font-family:"trebuchet ms",verdana,arial,sans-serif;font-size:10px;}#mermaid-1635518811126 g.classGroup text .title{font-weight:bolder;}#mermaid-1635518811126 .classTitle{font-weight:bolder;}#mermaid-1635518811126 .node rect,#mermaid-1635518811126 .node circle,#mermaid-1635518811126 .node ellipse,#mermaid-1635518811126 .node polygon,#mermaid-1635518811126 .node path{fill:#ECECFF;stroke:#9370DB;stroke-width:1px;}#mermaid-1635518811126 .divider{stroke:#9370DB;stroke:1;}#mermaid-1635518811126 g.clickable{cursor:pointer;}#mermaid-1635518811126 g.classGroup rect{fill:#ECECFF;stroke:#9370DB;}#mermaid-1635518811126 g.classGroup line{stroke:#9370DB;stroke-width:1;}#mermaid-1635518811126 .classLabel .box{stroke:none;stroke-width:0;fill:#ECECFF;opacity:0.5;}#mermaid-1635518811126 .classLabel .label{fill:#9370DB;font-size:10px;}#mermaid-1635518811126 .relation{stroke:#333333;stroke-width:1;fill:none;}#mermaid-1635518811126 .dashed-line{stroke-dasharray:3;}#mermaid-1635518811126 #compositionStart,#mermaid-1635518811126 .composition{fill:#333333 !important;stroke:#333333 !important;stroke-width:1;}#mermaid-1635518811126 #compositionEnd,#mermaid-1635518811126 .composition{fill:#333333 !important;stroke:#333333 !important;stroke-width:1;}#mermaid-1635518811126 #dependencyStart,#mermaid-1635518811126 .dependency{fill:#333333 !important;stroke:#333333 !important;stroke-width:1;}#mermaid-1635518811126 #dependencyStart,#mermaid-1635518811126 .dependency{fill:#333333 !important;stroke:#333333 !important;stroke-width:1;}#mermaid-1635518811126 #extensionStart,#mermaid-1635518811126 .extension{fill:#333333 !important;stroke:#333333 !important;stroke-width:1;}#mermaid-1635518811126 #extensionEnd,#mermaid-1635518811126 .extension{fill:#333333 !important;stroke:#333333 !important;stroke-width:1;}#mermaid-1635518811126 #aggregationStart,#mermaid-1635518811126 .aggregation{fill:#ECECFF !important;stroke:#333333 !important;stroke-width:1;}#mermaid-1635518811126 #aggregationEnd,#mermaid-1635518811126 .aggregation{fill:#ECECFF !important;stroke:#333333 !important;stroke-width:1;}#mermaid-1635518811126 .edgeTerminals{font-size:11px;}#mermaid-1635518811126:root{--mermaid-font-family:"trebuchet ms",verdana,arial,sans-serif;}#mermaid-1635518811126 class{fill:apa;}</style><g></g><defs><marker id="extensionStart" class="extension" refX="0" refY="7" markerWidth="190" markerHeight="240" orient="auto"><path d="M 1,7 L18,13 V 1 Z"></path></marker></defs><defs><marker id="extensionEnd" refX="19" refY="7" markerWidth="20" markerHeight="28" orient="auto"><path d="M 1,1 V 13 L18,7 Z"></path></marker></defs><defs><marker id="compositionStart" class="extension" refX="0" refY="7" markerWidth="190" markerHeight="240" orient="auto"><path d="M 18,7 L9,13 L1,7 L9,1 Z"></path></marker></defs><defs><marker id="compositionEnd" refX="19" refY="7" markerWidth="20" markerHeight="28" orient="auto"><path d="M 18,7 L9,13 L1,7 L9,1 Z"></path></marker></defs><defs><marker id="aggregationStart" class="extension" refX="0" refY="7" markerWidth="190" markerHeight="240" orient="auto"><path d="M 18,7 L9,13 L1,7 L9,1 Z"></path></marker></defs><defs><marker id="aggregationEnd" refX="19" refY="7" markerWidth="20" markerHeight="28" orient="auto"><path d="M 18,7 L9,13 L1,7 L9,1 Z"></path></marker></defs><defs><marker id="dependencyStart" class="extension" refX="0" refY="7" markerWidth="190" markerHeight="240" orient="auto"><path d="M 5,7 L9,13 L1,7 L9,1 Z"></path></marker></defs><defs><marker id="dependencyEnd" refX="19" refY="7" markerWidth="20" markerHeight="28" orient="auto"><path d="M 18,7 L9,13 L14,7 L9,1 Z"></path></marker></defs><g id="classid-Attendance-0" class="classGroup" transform="translate(67.5,782 )"><rect x="0" y="0" width="65" height="30" class=" "></rect><text y="15" x="0"><tspan class="title" x="5">Attendance</tspan></text><line x1="0" y1="21" y2="21" x2="65"></line><text x="5" y="31" fill="white" class="classText"></text><line x1="0" y1="26" y2="26" x2="65"></line><text x="5" y="41" fill="white" class="classText"></text></g><g id="classid-Business-1" class="classGroup" transform="translate(72,381.5 )"><rect x="0" y="0" width="56" height="30" class=" "></rect><text y="15" x="0"><tspan class="title" x="5">Business</tspan></text><line x1="0" y1="21" y2="21" x2="56"></line><text x="5" y="31" fill="white" class="classText"></text><line x1="0" y1="26" y2="26" x2="56"></line><text x="5" y="41" fill="white" class="classText"></text></g><g id="classid-Case-2" class="classGroup" transform="translate(82.5,462 )"><rect x="0" y="0" width="35" height="30" class=" "></rect><text y="15" x="0"><tspan class="title" x="5">Case</tspan></text><line x1="0" y1="21" y2="21" x2="35"></line><text x="5" y="31" fill="white" class="classText"></text><line x1="0" y1="26" y2="26" x2="35"></line><text x="5" y="41" fill="white" class="classText"></text></g><g id="classid-Child-3" class="classGroup" transform="translate(82.5,622 )"><rect x="0" y="0" width="35" height="30" class=" "></rect><text y="15" x="0"><tspan class="title" x="5">Child</tspan></text><line x1="0" y1="21" y2="21" x2="35"></line><text x="5" y="31" fill="white" class="classText"></text><line x1="0" y1="26" y2="26" x2="35"></line><text x="5" y="41" fill="white" class="classText"></text></g><g id="classid-ChildCasePeriod-4" class="classGroup" transform="translate(94.5,542 )"><rect x="0" y="0" width="92" height="30" class=" "></rect><text y="15" x="0"><tspan class="title" x="5">ChildCasePeriod</tspan></text><line x1="0" y1="21" y2="21" x2="92"></line><text x="5" y="31" fill="white" class="classText"></text><line x1="0" y1="26" y2="26" x2="92"></line><text x="5" y="41" fill="white" class="classText"></text></g><g id="classid-ServiceDay-5" class="classGroup" transform="translate(66.5,702 )"><rect x="0" y="0" width="67" height="30" class=" "></rect><text y="15" x="0"><tspan class="title" x="5">ServiceDay</tspan></text><line x1="0" y1="21" y2="21" x2="67"></line><text x="5" y="31" fill="white" class="classText"></text><line x1="0" y1="26" y2="26" x2="67"></line><text x="5" y="41" fill="white" class="classText"></text></g><g id="classid-User-6" class="classGroup" transform="translate(0,0 )"><rect x="0" y="0" width="200" height="331" class=" "></rect><text y="15" x="0"><tspan class="title" x="88.5">User</tspan></text><line x1="0" y1="21" y2="21" x2="200"></line><text x="5" y="31" fill="white" class="classText"><tspan x="5">+Uuid id</tspan><tspan x="5" dy="10">+Boolean active</tspan><tspan x="5" dy="10">+Boolean admin</tspan><tspan x="5" dy="10">+DateTime confirmation_sent_at</tspan><tspan x="5" dy="10">+String confirmation_token</tspan><tspan x="5" dy="10">+DateTime confirmed_at</tspan><tspan x="5" dy="10">+DateTime current_sign_in_at</tspan><tspan x="5" dy="10">+INet current_sign_in_ip</tspan><tspan x="5" dy="10">+DateTime deleted_at</tspan><tspan x="5" dy="10">+String email</tspan><tspan x="5" dy="10">+String encrypted_password</tspan><tspan x="5" dy="10">+String full_name</tspan><tspan x="5" dy="10">+String greeting_name</tspan><tspan x="5" dy="10">+String language</tspan><tspan x="5" dy="10">+DateTime last_sign_in_at</tspan><tspan x="5" dy="10">+INet last_sign_in_ip</tspan><tspan x="5" dy="10">+Boolean opt_in_email</tspan><tspan x="5" dy="10">+Boolean opt_in_text</tspan><tspan x="5" dy="10">+String organization</tspan><tspan x="5" dy="10">+String phone_number</tspan><tspan x="5" dy="10">+String phone_type</tspan><tspan x="5" dy="10">+DateTime remember_created_at</tspan><tspan x="5" dy="10">+DateTime reset_password_sent_at</tspan><tspan x="5" dy="10">+String reset_password_token</tspan><tspan x="5" dy="10">+Boolean service_agreement_accepted</tspan><tspan x="5" dy="10">+Integer sign_in_count</tspan><tspan x="5" dy="10">+String timezone</tspan><tspan x="5" dy="10">+String unconfirmed_email</tspan><tspan x="5" dy="10">+DateTime created_at</tspan><tspan x="5" dy="10">+DateTime updated_at</tspan></text><line x1="0" y1="327" y2="327" x2="200"></line><text x="5" y="342" fill="white" class="classText"></text></g><g id="classid-State-7" class="classGroup" transform="translate(543,150.5 )"><rect x="0" y="0" width="35" height="30" class=" "></rect><text y="15" x="0"><tspan class="title" x="5">State</tspan></text><line x1="0" y1="21" y2="21" x2="35"></line><text x="5" y="31" fill="white" class="classText"></text><line x1="0" y1="26" y2="26" x2="35"></line><text x="5" y="41" fill="white" class="classText"></text></g><g id="classid-StateDurationRule-8" class="classGroup" transform="translate(198.25,381.5 )"><rect x="0" y="0" width="98" height="30" class=" "></rect><text y="15" x="0"><tspan class="title" x="5">StateDurationRule</tspan></text><line x1="0" y1="21" y2="21" x2="98"></line><text x="5" y="31" fill="white" class="classText"></text><line x1="0" y1="26" y2="26" x2="98"></line><text x="5" y="41" fill="white" class="classText"></text></g><g id="classid-StateAbsenceLimit-9" class="classGroup" transform="translate(346.25,381.5 )"><rect x="0" y="0" width="103" height="30" class=" "></rect><text y="15" x="0"><tspan class="title" x="5">StateAbsenceLimit</tspan></text><line x1="0" y1="21" y2="21" x2="103"></line><text x="5" y="31" fill="white" class="classText"></text><line x1="0" y1="26" y2="26" x2="103"></line><text x="5" y="41" fill="white" class="classText"></text></g><g id="classid-StateEarnedRevenueCalculator-10" class="classGroup" transform="translate(499.25,381.5 )"><rect x="0" y="0" width="163" height="30" class=" "></rect><text y="15" x="0"><tspan class="title" x="5">StateEarnedRevenueCalculator</tspan></text><line x1="0" y1="21" y2="21" x2="163"></line><text x="5" y="31" fill="white" class="classText"></text><line x1="0" y1="26" y2="26" x2="163"></line><text x="5" y="41" fill="white" class="classText"></text></g><g id="classid-StateRate-11" class="classGroup" transform="translate(712.25,381.5 )"><rect x="0" y="0" width="57" height="30" class=" "></rect><text y="15" x="0"><tspan class="title" x="5">StateRate</tspan></text><line x1="0" y1="21" y2="21" x2="57"></line><text x="5" y="31" fill="white" class="classText"></text><line x1="0" y1="26" y2="26" x2="57"></line><text x="5" y="41" fill="white" class="classText"></text></g><g id="classid-StateRateConfiguration-12" class="classGroup" transform="translate(819.25,381 )"><rect x="0" y="0" width="122" height="31" class=" "></rect><text y="15" x="0"><tspan class="title" x="5">StateRateConfiguration</tspan></text><line x1="0" y1="22" y2="22" x2="122"></line><text x="5" y="32" fill="white" class="classText"></text><line x1="0" y1="27" y2="27" x2="122"></line><text x="5" y="42" fill="white" class="classText"></text></g><path d="M100,331L100,335.1666666666667C100,339.3333333333333,100,347.6666666666667,100,356.0833333333333C100,364.5,100,373,100,377.25L100,381.5" id="edge0" class="relation" marker-start="url(#compositionStart)"></path><g class="cardinality"><text class="type1" x="90" y="343.5" fill="black" font-size="6">1</text></g><g class="cardinality"><text class="type2" x="105" y="369" fill="black" font-size="6">*</text></g><path d="M100,411.5L100,415.75C100,420,100,428.5,100,436.9166666666667C100,445.3333333333333,100,453.6666666666667,100,457.8333333333333L100,462" id="edge1" class="relation" marker-start="url(#compositionStart)"></path><g class="cardinality"><text class="type1" x="90" y="424" fill="black" font-size="6">1</text></g><g class="cardinality"><text class="type2" x="105" y="449.5" fill="black" font-size="6">*</text></g><path d="M115.1875,492L119.40625,496.1666666666667C123.625,500.3333333333333,132.0625,508.6666666666667,136.28125,517C140.5,525.3333333333334,140.5,533.6666666666666,140.5,537.8333333333334L140.5,542" id="edge2" class="relation" marker-start="url(#compositionStart)"></path><g class="cardinality"><text class="type1" x="117.05405021938124" y="507.89861598625896" fill="black" font-size="6">1</text></g><g class="cardinality"><text class="type2" x="145.5" y="529.5" fill="black" font-size="6">1..*</text></g><path d="M84.8125,492L80.59375,496.1666666666667C76.375,500.3333333333333,67.9375,508.6666666666667,63.71875,519.5C59.5,530.3333333333334,59.5,543.6666666666666,59.5,557C59.5,570.3333333333334,59.5,583.6666666666666,63.71875,594.5C67.9375,605.3333333333334,76.375,613.6666666666666,80.59375,617.8333333333334L84.8125,622" id="edge3" class="relation" marker-start="url(#compositionStart)"></path><g class="cardinality"><text class="type1" x="68.89192459939541" y="493.6689154902703" fill="black" font-size="6">1</text></g><g class="cardinality"><text class="type2" x="79.43244348531293" y="609.6588091377382" fill="black" font-size="6">1..*</text></g><path d="M140.5,572L140.5,576.1666666666666C140.5,580.3333333333334,140.5,588.6666666666666,136.28125,597C132.0625,605.3333333333334,123.625,613.6666666666666,119.40625,617.8333333333334L115.1875,622" id="edge4" class="relation" marker-end="url(#compositionEnd)"></path><g class="cardinality"><text class="type1" x="135.5" y="584.5" fill="black" font-size="6">1..*</text></g><g class="cardinality"><text class="type2" x="131.1080754006046" y="620.3310845097297" fill="black" font-size="6">1</text></g><path d="M100,652L100,656.1666666666666C100,660.3333333333334,100,668.6666666666666,100,677C100,685.3333333333334,100,693.6666666666666,100,697.8333333333334L100,702" id="edge5" class="relation" marker-start="url(#aggregationStart)"></path><g class="cardinality"><text class="type1" x="90" y="664.5" fill="black" font-size="6">1</text></g><g class="cardinality"><text class="type2" x="105" y="689.5" fill="black" font-size="6">*</text></g><path d="M100,732L100,736.1666666666666C100,740.3333333333334,100,748.6666666666666,100,757C100,765.3333333333334,100,773.6666666666666,100,777.8333333333334L100,782" id="edge6" class="relation" marker-start="url(#aggregationStart)"></path><g class="cardinality"><text class="type1" x="90" y="744.5" fill="black" font-size="6">1</text></g><g class="cardinality"><text class="type2" x="105" y="769.5" fill="black" font-size="6">1..*</text></g><path d="M543,176.14245810055866L493.7083333333333,206.11871508379886C444.4166666666667,236.0949720670391,345.8333333333333,296.04748603351953,296.5416666666667,330.27374301675974C247.25,364.5,247.25,373,247.25,377.25L247.25,381.5" id="edge7" class="relation" marker-start="url(#compositionStart)"></path><g class="cardinality"><text class="type1" x="527.1238775635795" y="174.0933762613471" fill="black" font-size="6">1</text></g><g class="cardinality"><text class="type2" x="252.25" y="369" fill="black" font-size="6">*</text></g><path d="M547.6850393700787,180.5L522.6958661417323,209.75C497.7066929133858,239,447.7283464566929,297.5,422.7391732283465,331C397.75,364.5,397.75,373,397.75,377.25L397.75,381.5" id="edge8" class="relation" marker-start="url(#compositionStart)"></path><g class="cardinality"><text class="type1" x="531.9624440932154" y="183.5083214189905" fill="black" font-size="6">1</text></g><g class="cardinality"><text class="type2" x="402.75" y="369" fill="black" font-size="6">*</text></g><path d="M562.0944881889764,180.5L565.2037401574803,209.75C568.3129921259842,239,574.5314960629921,297.5,577.6407480314961,331C580.75,364.5,580.75,373,580.75,377.25L580.75,381.5" id="edge9" class="relation" marker-start="url(#compositionStart)"></path><g class="cardinality"><text class="type1" x="553.4718075885354" y="193.98700779501436" fill="black" font-size="6">1</text></g><g class="cardinality"><text class="type2" x="585.75" y="369" fill="black" font-size="6">*</text></g><path d="M574.6929133858267,180.5L602.3690944881889,209.75C630.0452755905511,239,685.3976377952755,297.5,713.0738188976378,331C740.75,364.5,740.75,373,740.75,377.25L740.75,381.5" id="edge10" class="relation" marker-start="url(#compositionStart)"></path><g class="cardinality"><text class="type1" x="576.0203174413425" y="196.45267997777805" fill="black" font-size="6">1</text></g><g class="cardinality"><text class="type2" x="745.75" y="369" fill="black" font-size="6">*</text></g><path d="M578,175.926114151681L628.375,205.93842845973415C678.75,235.95074276778732,779.5,295.9753713838937,829.875,330.1543523586135C880.25,364.3333333333333,880.25,372.6666666666667,880.25,376.8333333333333L880.25,381" id="edge11" class="relation" marker-start="url(#compositionStart)"></path><g class="cardinality"><text class="type1" x="583.6203494979897" y="190.9148322930181" fill="black" font-size="6">1</text></g><g class="cardinality"><text class="type2" x="885.25" y="368.5" fill="black" font-size="6">*</text></g></svg>